<?xml version="1.0" encoding="UTF-8" standalone="no"?>
<!-- Created with Inkscape (http://www.inkscape.org/) -->

<svg
   xmlns:dc="http://purl.org/dc/elements/1.1/"
   xmlns:cc="http://creativecommons.org/ns#"
   xmlns:rdf="http://www.w3.org/1999/02/22-rdf-syntax-ns#"
   xmlns:svg="http://www.w3.org/2000/svg"
   xmlns="http://www.w3.org/2000/svg"
   version="1.1"
   width="322.27991"
   height="321.6004"
   id="svg3954">
  <defs
     id="defs3956" />
  <metadata
     id="metadata3959">
    <rdf:RDF>
      <cc:Work
         rdf:about="">
        <dc:format>image/svg+xml</dc:format>
        <dc:type
           rdf:resource="http://purl.org/dc/dcmitype/StillImage" />
        <dc:title></dc:title>
      </cc:Work>
    </rdf:RDF>
  </metadata>
  <g
     transform="translate(-276.94209,-187.58091)"
     id="layer1">
    <path
       d="m 409.43392,445.79609 c -13.01642,-13.03437 -16.68054,-16.18984 -17.75964,-15.29427 -2.32773,1.93185 -0.86434,-7.18927 12.22735,-76.21106 4.74661,-25.025 10.82605,-57.425 13.50986,-72 2.6838,-14.575 5.16033,-27.22655 5.50339,-28.11455 0.86064,-2.22779 3.12413,-3.16869 26.51103,-11.02017 14.58649,-4.897 20.60767,-6.5186 20.88,-5.62333 0.21048,0.69193 7.97688,8.92702 17.25868,18.30021 14.28486,14.4255 16.84135,17.46087 16.6503,19.76923 -0.20691,2.50002 -1.58123,1.37342 -16.506,-13.53079 -8.95416,-8.94183 -16.2803,-16.48271 -16.2803,-16.75751 0,-0.27481 7.2,6.6898 16,15.47691 8.8,8.78711 16,15.75172 16,15.47691 0,-0.2748 -7.32845,-7.81799 -16.28544,-16.76264 -16.00255,-15.98051 -16.28968,-16.20726 -16.52995,-13.05396 -0.22351,2.93323 1.27873,4.74084 17.47836,21.03144 13.8854,13.96335 17.46037,18.08491 16.51046,19.03482 -0.9499,0.9499 -4.84349,-2.41393 -17.98196,-15.53535 l -16.76953,-16.74777 -0.0472,4.45322 c -0.0472,4.45316 -0.047,4.45341 16.53903,20.77827 l 16.58623,16.32506 -16.5,-17 -16.5,-17 16.71399,16.45267 c 9.1927,9.04898 16.52103,16.64564 16.28519,16.88149 -0.23585,0.23584 0.0212,1.26964 0.57119,2.29732 0.6772,1.26536 0.66584,1.86852 -0.0352,1.86852 -0.56935,0 -1.03518,1.45754 -1.03518,3.23897 0,3.11317 -0.66024,2.57958 -17,-13.73897 -14.19412,-14.1757 -17,-16.56885 -17,-14.49939 0,1.87328 4.14867,6.63249 16.98883,19.48897 l 16.98883,17.01042 -1.03954,3.76344 c -0.57175,2.06988 -0.79668,4.1564 -0.49984,4.63669 0.29683,0.48029 -0.1359,1.43395 -0.96162,2.11924 -1.14144,0.94731 -1.22931,1.57375 -0.36655,2.61331 0.62413,0.75203 0.77215,1.36732 0.32893,1.36732 -0.44321,0 -8.48581,-7.5375 -17.87244,-16.75 l -17.06659,-16.75 17.35953,17.67496 c 15.04607,15.31946 17.17835,17.87643 16,19.18676 -1.18437,1.31703 -3.50362,-0.62272 -18.00077,-15.0553 -14.63721,-14.57201 -16.72267,-16.31057 -17.31739,-14.43677 -0.37188,1.17169 -1.056,2.13035 -1.52027,2.13035 -1.26178,0 -0.60077,2.84213 0.99079,4.26012 1.18833,1.05873 1.18916,0.94768 0.006,-0.76012 -0.76228,-1.1 6.08192,5.37994 15.20934,14.39986 10.79696,10.66981 16.40148,16.90497 16.04056,17.84552 -0.37993,0.99007 -5.79135,-3.78416 -17.17183,-15.14987 -9.13972,-9.12753 -17.04576,-16.59551 -17.5693,-16.59551 -0.52354,0 6.79378,7.79165 16.26072,17.31478 9.46694,9.52313 17.21262,17.7308 17.21262,18.23928 0,0.50848 -7.98153,-6.94567 -17.73674,-16.56478 l -17.73674,-17.48928 17.41217,17.74124 c 9.57668,9.75769 17.09194,18.06146 16.70056,18.45284 -0.39138,0.39138 -8.28068,-6.84766 -17.53178,-16.08675 -13.67635,-13.6586 -16.94863,-16.46363 -17.5074,-15.00751 -0.53309,1.38922 2.88508,5.39136 15.24162,17.84551 8.77998,8.84934 15.90553,16.84007 15.87691,17.80467 -0.0286,0.9625 -0.0945,1.75 -0.14663,1.75 -0.0521,0 -7.51459,-7.48395 -16.58334,-16.63099 -9.06874,-9.14705 -15.81363,-16.26067 -14.98863,-15.80804 1.29246,0.70908 1.31011,0.58884 0.12756,-0.86901 -1.48582,-1.83173 -2.63355,-2.31969 -1.62756,-0.69196 0.33992,0.55 0.18962,1 -0.33399,1 -3.67771,0 -0.30332,4.35891 15.17297,19.5999 l 17.16102,16.9001 -17,-17.5 -17,-17.5 17.20851,16.94753 c 13.71157,13.50362 16.97809,17.22517 16.0746,18.3138 -0.91174,1.09858 -4.47929,-1.92801 -18.2085,-15.44752 l -17.07461,-16.81379 17.34573,17.60627 c 11.89986,12.07859 16.89179,17.78045 15.89987,18.16109 -0.94113,0.36115 -7.17094,-5.24579 -17.84574,-16.06147 -9.01992,-9.13897 -15.38736,-15.77923 -14.14986,-14.75612 2.78478,2.30231 2.98971,1.52961 0.25153,-0.94841 -1.95067,-1.76532 -2.02477,-1.73315 -3.09783,1.34501 -0.60464,1.73449 -1.61301,3.15361 -2.24081,3.15361 -0.6278,0 6.7239,7.875 16.33711,17.5 9.61321,9.625 17.02827,17.5 16.47792,17.5 -0.55036,0 -8.40218,-7.41174 -17.44849,-16.47053 -10.98228,-10.99743 -16.69857,-16.06494 -17.20239,-15.25 -0.48935,0.79156 5.20765,7.21824 16.2092,18.28531 9.33007,9.38563 16.96376,17.4808 16.96376,17.98928 0,0.50848 -7.98153,-6.94567 -17.73674,-16.56478 l -17.73674,-17.48928 17.41217,17.74124 c 9.57668,9.75769 17.09194,18.06146 16.70056,18.45284 -0.39138,0.39138 -8.45782,-6.91717 -17.92542,-16.24123 l -17.21383,-16.95283 17.24675,17.50716 c 14.12798,14.3413 16.96568,17.68669 15.69248,18.49999 -0.85485,0.54605 -1.66536,1.76731 -1.80114,2.71389 -0.13578,0.94658 -0.46869,1.94287 -0.7398,2.21399 -0.27112,0.27111 -7.81663,-6.84086 -16.76781,-15.80439 -8.95118,-8.96353 -15.58718,-16.29733 -14.74667,-16.29733 0.84052,0 1.25348,0.44453 0.91769,0.98785 -0.36721,0.59416 -0.0889,0.66543 0.6985,0.17882 0.92131,-0.5694 1.0694,-0.42131 0.5,0.5 -0.5694,0.92131 -0.42131,1.0694 0.5,0.5 0.92131,-0.5694 1.0694,-0.42131 0.5,0.5 -0.5694,0.92131 -0.42131,1.0694 0.5,0.5 0.92131,-0.5694 1.0694,-0.42131 0.5,0.5 -0.5694,0.92131 -0.42131,1.0694 0.5,0.5 0.92131,-0.5694 1.0694,-0.42131 0.5,0.5 -0.5694,0.92131 -0.42131,1.0694 0.5,0.5 0.92131,-0.5694 1.0694,-0.42131 0.5,0.5 -0.5694,0.92131 -0.42131,1.0694 0.5,0.5 0.92131,-0.5694 1.0694,-0.42131 0.5,0.5 -0.5694,0.92131 -0.42131,1.0694 0.5,0.5 0.92131,-0.5694 1.0694,-0.42131 0.5,0.5 -0.5694,0.92131 -0.42131,1.0694 0.5,0.5 0.92131,-0.5694 1.0694,-0.42131 0.5,0.5 -0.5694,0.92131 -0.42131,1.0694 0.5,0.5 0.92131,-0.5694 1.0694,-0.42131 0.5,0.5 -0.5694,0.92131 -0.42131,1.0694 0.5,0.5 0.92131,-0.5694 1.0694,-0.42131 0.5,0.5 -0.5694,0.92131 -0.42131,1.0694 0.5,0.5 0.92131,-0.5694 1.0694,-0.42131 0.5,0.5 -0.5694,0.92131 -0.42131,1.0694 0.5,0.5 0.92131,-0.5694 1.0694,-0.42131 0.5,0.5 -0.5694,0.92131 -0.42131,1.0694 0.5,0.5 0.92131,-0.5694 1.0694,-0.42131 0.5,0.5 -0.5694,0.92131 -0.42131,1.0694 0.5,0.5 0.92131,-0.5694 1.0694,-0.42131 0.5,0.5 -0.5694,0.92131 -0.42131,1.0694 0.5,0.5 0.92131,-0.5694 1.0694,-0.42131 0.5,0.5 -0.5694,0.92131 -0.42131,1.0694 0.5,0.5 0.92131,-0.5694 1.0694,-0.42131 0.5,0.5 -0.5694,0.92131 -0.42131,1.0694 0.5,0.5 0.92131,-0.5694 1.0694,-0.42131 0.5,0.5 -0.5694,0.92131 -0.42131,1.0694 0.5,0.5 0.92131,-0.5694 1.0694,-0.42131 0.5,0.5 -0.5694,0.92131 -0.42131,1.0694 0.5,0.5 0.92131,-0.5694 1.0694,-0.42131 0.5,0.5 -0.5694,0.92131 -0.42131,1.0694 0.5,0.5 0.92131,-0.5694 1.0694,-0.42131 0.5,0.5 -0.5694,0.92131 -0.42131,1.0694 0.5,0.5 0.92131,-0.5694 1.0694,-0.42131 0.5,0.5 -0.5694,0.92131 -0.42131,1.0694 0.5,0.5 0.92131,-0.5694 1.0694,-0.42131 0.5,0.5 -0.5694,0.92131 -0.42131,1.0694 0.5,0.5 0.92131,-0.5694 1.0694,-0.42131 0.5,0.5 -0.5694,0.92131 -0.42131,1.0694 0.5,0.5 0.92131,-0.5694 1.0694,-0.42131 0.5,0.5 -0.5694,0.92131 -0.42131,1.0694 0.5,0.5 0.92131,-0.5694 1.0694,-0.42131 0.5,0.5 -0.5694,0.92131 -0.42131,1.0694 0.5,0.5 0.92131,-0.5694 1.0694,-0.42131 0.5,0.5 -0.5694,0.92131 -0.42131,1.0694 0.5,0.5 0.92131,-0.5694 1.0694,-0.42131 0.5,0.5 -0.5694,0.92131 -0.42131,1.0694 0.5,0.5 0.92131,-0.5694 1.0694,-0.42131 0.5,0.5 -0.5694,0.92131 -0.42131,1.0694 0.5,0.5 0.92131,-0.5694 1.0694,-0.42131 0.5,0.5 -0.56067,0.90718 -0.4205,1.0689 0.45661,0.52682 0.87576,-0.54125 -3.77075,-5.82553 -15.08413,-17.15451 -15.27874,-15.29983 -17.79217,-17.66941 -16.46608,-15.52375 0.28844,0.4667 -0.31718,1.75193 -1.34583,2.85605 -1.84802,1.98362 -1.66956,2.20795 14.9984,18.85429 9.27778,9.26573 16.64368,17.07178 16.36868,17.34678 -0.275,0.275 -8.0504,-7.0406 -17.27868,-16.2569 -16.23089,-16.20983 -16.81444,-16.6784 -17.87426,-14.35236 -1.02862,2.25759 -0.0468,3.43736 16.06485,19.30406 l 17.16044,16.89952 -17,-17.5 -17,-17.5 17.21781,16.95682 c 15.50733,15.27226 17.07178,17.1182 15.74782,18.58116 -0.8085,0.89338 -1.14779,2.0378 -0.75399,2.54317 0.3938,0.50537 -7.25521,-6.95133 -16.99782,-16.57043 -9.7426,-9.61911 -17.71382,-17.2126 -17.71382,-16.87443 0,0.33817 -1.08817,3.07539 -2.41815,6.08273 l -2.41816,5.46787 16.16814,15.90656 16.16814,15.90655 -15.49999,-16 -15.49998,-16 15.53927,15.2775 c 8.6963,8.5498 15.6047,16.14612 15.68785,17.25 0.0817,1.08487 -0.16607,1.9725 -0.55064,1.9725 -0.38456,0 -8.10074,-7.41174 -17.14705,-16.47053 -11.03569,-11.05092 -16.69951,-16.06891 -17.21269,-15.25 -0.49884,0.79602 4.95364,6.95933 15.6768,17.72053 12.32108,12.36479 16.39645,17.06389 16.26126,18.75 -0.0992,1.2375 -0.41732,2.25 -0.70688,2.25 -0.28956,0 -8.1813,-7.53749 -17.5372,-16.74999 l -17.01072,-16.74999 17.34573,17.60627 c 11.90186,12.08062 16.89188,17.78042 15.89962,18.16119 -0.94139,0.36124 -6.99549,-5.08574 -17.34574,-15.60626 l -15.89961,-16.16119 15.75,15.48789 c 8.6625,8.51833 15.75,15.26305 15.75,14.98826 0,-0.27479 -7.18459,-7.67369 -15.96576,-16.44199 l -15.96575,-15.94236 -1.6141,3.86309 -1.6141,3.86308 16.07986,16.10204 c 8.84392,8.85612 16.07985,16.5421 16.07985,17.07997 0,0.53786 -7.58536,-6.59759 -16.85636,-15.85656 -11.54203,-11.52704 -17.03129,-16.37863 -17.4112,-15.38858 -0.36011,0.93842 5.05244,7.02643 15.42099,17.34552 8.78672,8.74478 16.44494,16.79961 17.01829,17.89961 0.57334,1.1 -6.98728,-5.875 -16.80138,-15.5 l -17.84382,-17.5 17.48674,17.88094 c 10.06451,10.2914 16.95353,18.07385 16.23051,18.33541 -0.69093,0.24996 -1.00187,0.86604 -0.69098,1.36906 1.39628,2.25924 -1.06458,-0.0899 -16.06451,-15.33539 l -15.98828,-16.24999 16,15.49978 16,15.49978 -16.48863,-16.74979 c -9.06875,-9.21239 -16.62921,-16.7498 -16.80103,-16.7498 -0.17182,0 -1.00037,1.64655 -1.84122,3.659 l -1.52883,3.659 16.07986,16.10204 c 8.84392,8.85612 16.07985,16.5421 16.07985,17.07997 0,0.53786 -7.58536,-6.59759 -16.85636,-15.85656 -11.54007,-11.52509 -17.03132,-16.37854 -17.41111,-15.38883 -0.35996,0.93805 5.19759,7.19006 15.82777,17.8056 12.3804,12.36334 16.33671,16.91348 16.19499,18.62581 -0.10314,1.24622 -0.69783,2.46168 -1.32154,2.70102 -0.62371,0.23934 -8.51396,-7.06233 -17.53389,-16.22594 l -16.39986,-16.66111 17,16.5 17,16.5 -16.434,-16.6953 c -15.15685,-15.39783 -18.066,-17.73378 -18.066,-14.5064 0,0.64914 7.5375,8.83508 16.75,18.19098 l 16.75,17.01072 -17.01072,-16.75 c -9.3559,-9.2125 -17.45108,-16.75 -17.98928,-16.75 -0.53821,0 6.88679,7.875 16.5,17.5 9.61321,9.625 17.03821,17.5 16.5,17.5 -0.5382,0 -8.45624,-7.46798 -17.59564,-16.59551 -11.38048,-11.36571 -16.7919,-16.13994 -17.17183,-15.14987 -0.36063,0.9398 5.23355,7.18418 15.98735,17.84552 9.09816,9.01992 16.17178,15.72486 15.71915,14.89986 -0.70908,-1.29246 -0.58884,-1.31011 0.86901,-0.12756 1.92564,1.562 2.28587,2.61265 0.52202,1.52253 -0.77437,-0.47859 -0.96477,-0.18841 -0.56314,0.85823 0.33374,0.8697 0.0276,1.80352 -0.6802,2.07515 -0.73276,0.28119 -8.34945,-6.68109 -17.68686,-16.16724 l -16.39986,-16.66111 17,16.5 17,16.5 -16.434,-16.6953 c -15.15685,-15.39783 -18.066,-17.73378 -18.066,-14.5064 0,0.64914 7.5375,8.83508 16.75,18.19098 l 16.75,17.01072 -17.01072,-16.75 c -9.3559,-9.2125 -17.45108,-16.75 -17.98928,-16.75 -0.53821,0 6.89161,7.98749 16.51072,17.74999 l 17.48928,17.74999 -17.01072,-16.74999 c -9.3559,-9.2125 -17.45093,-16.74999 -17.98897,-16.74999 -0.53804,0 6.64557,7.63372 15.96356,16.96383 9.318,9.3301 16.71674,17.1889 16.44165,17.46399 -0.2751,0.27509 -7.88018,-6.89003 -16.90019,-15.92249 z m 47.92178,-89.07832 c -8.96231,-8.97468 -16.71232,-16.05976 -17.22223,-15.74461 -0.50992,0.31514 6.40569,7.91591 15.36801,16.89059 8.96231,8.97468 16.71232,16.05976 17.22223,15.74461 0.50992,-0.31514 -6.40569,-7.91591 -15.36801,-16.89059 z m -1.42711,0.57299 c -8.78711,-8.8 -15.75156,-16 -15.47656,-16 0.275,0 7.68945,7.2 16.47656,16 8.78711,8.8 15.75156,16 15.47656,16 -0.275,0 -7.68945,-7.2 -16.47656,-16 z m 26.5,-1.26293 c 0,-0.14462 -6.6375,-6.78212 -14.75,-14.75 l -14.75,-14.48707 14.48707,14.75 c 13.45808,13.70235 15.01293,15.20273 15.01293,14.48707 z m 4,-8.99957 c 0,-0.14438 -6.8625,-7.00688 -15.25,-15.25 l -15.25,-14.9875 14.9875,15.25 c 13.92324,14.1671 15.5125,15.70258 15.5125,14.9875 z m 7,-11 c 0,-0.14438 -6.8625,-7.00688 -15.25,-15.25 l -15.25,-14.9875 14.9875,15.25 c 13.92324,14.1671 15.5125,15.70258 15.5125,14.9875 z m -12,-24.2375 c -9.0625,-9.075 -16.70227,-16.5 -16.97727,-16.5 -0.275,0 6.91477,7.425 15.97727,16.5 9.0625,9.075 16.70227,16.5 16.97727,16.5 0.275,0 -6.91477,-7.425 -15.97727,-16.5 z m 19,7.71089 c 0,-0.29932 -0.31626,-0.22797 -0.70279,0.15857 -0.38653,0.38653 -8.00835,-6.5927 -16.93736,-15.50942 -8.92901,-8.91671 -16.12026,-15.43337 -15.98055,-14.48148 0.13971,0.9519 7.17515,8.66268 15.63431,17.13507 11.84556,11.86408 15.67976,15.15581 16.68334,14.32291 0.71668,-0.59478 1.30305,-1.32633 1.30305,-1.62565 z m -18.0121,-13.96089 -15.4879,-15.75 15.75,15.4879 c 14.63187,14.38838 16.20244,16.0121 15.4879,16.0121 -0.14415,0 -7.23165,-7.0875 -15.75,-15.75 z m -68,128 -15.4879,-15.75 15.75,15.4879 c 8.6625,8.51835 15.75,15.60585 15.75,15.75 0,0.71454 -1.62372,-0.85603 -16.0121,-15.4879 z m 11.0121,-15.75 c -9.0625,-9.075 -16.25227,-16.5 -15.97727,-16.5 0.275,0 7.91477,7.425 16.97727,16.5 9.0625,9.075 16.25227,16.5 15.97727,16.5 -0.275,0 -7.91477,-7.425 -16.97727,-16.5 z m 1,-3 c -9.0625,-9.075 -16.25227,-16.5 -15.97727,-16.5 0.275,0 7.91477,7.425 16.97727,16.5 9.0625,9.075 16.25227,16.5 15.97727,16.5 -0.275,0 -7.91477,-7.425 -16.97727,-16.5 z m 7,-12 c -9.0625,-9.075 -16.25227,-16.5 -15.97727,-16.5 0.275,0 7.91477,7.425 16.97727,16.5 9.0625,9.075 16.25227,16.5 15.97727,16.5 -0.275,0 -7.91477,-7.425 -16.97727,-16.5 z m 1,-3 c -9.0625,-9.075 -16.25227,-16.5 -15.97727,-16.5 0.275,0 7.91477,7.425 16.97727,16.5 9.0625,9.075 16.25227,16.5 15.97727,16.5 -0.275,0 -7.91477,-7.425 -16.97727,-16.5 z m 9,-16 c -9.0625,-9.075 -16.25227,-16.5 -15.97727,-16.5 0.275,0 7.91477,7.425 16.97727,16.5 9.0625,9.075 16.25227,16.5 15.97727,16.5 -0.275,0 -7.91477,-7.425 -16.97727,-16.5 z m 1,-3 c -9.0625,-9.075 -16.25227,-16.5 -15.97727,-16.5 0.275,0 7.91477,7.425 16.97727,16.5 9.0625,9.075 16.25227,16.5 15.97727,16.5 -0.275,0 -7.91477,-7.425 -16.97727,-16.5 z m 1,-2 c -9.0625,-9.075 -16.25227,-16.5 -15.97727,-16.5 0.275,0 7.91477,7.425 16.97727,16.5 9.0625,9.075 16.25227,16.5 15.97727,16.5 -0.275,0 -7.91477,-7.425 -16.97727,-16.5 z m 1.48897,-1.75 -16.98897,-17.25 17.25,16.98897 c 9.4875,9.34393 17.25,17.10643 17.25,17.25 0,0.71308 -1.72731,-0.96274 -17.51103,-16.98897 z m 6.01103,-12.75 c -8.78711,-8.8 -15.75156,-16 -15.47656,-16 0.275,0 7.68945,7.2 16.47656,16 8.78711,8.8 15.75156,16 15.47656,16 -0.275,0 -7.68945,-7.2 -16.47656,-16 z m 10,-19 c -8.78711,-8.8 -15.75156,-16 -15.47656,-16 0.275,0 7.68945,7.2 16.47656,16 8.78711,8.8 15.75156,16 15.47656,16 -0.275,0 -7.68945,-7.2 -16.47656,-16 z m 1,-2 c -8.78711,-8.8 -15.75156,-16 -15.47656,-16 0.275,0 7.68945,7.2 16.47656,16 8.78711,8.8 15.75156,16 15.47656,16 -0.275,0 -7.68945,-7.2 -16.47656,-16 z m 8.5,-14.5 c -9.0625,-9.075 -16.25227,-16.5 -15.97727,-16.5 0.275,0 7.91477,7.425 16.97727,16.5 9.0625,9.075 16.25227,16.5 15.97727,16.5 -0.275,0 -7.91477,-7.425 -16.97727,-16.5 z m 5.5,-11.5 c -8.78711,-8.8 -15.75156,-16 -15.47656,-16 0.275,0 7.68945,7.2 16.47656,16 8.78711,8.8 15.75156,16 15.47656,16 -0.275,0 -7.68945,-7.2 -16.47656,-16 z m 1.5,-1.5 c -9.0625,-9.075 -16.25227,-16.5 -15.97727,-16.5 0.275,0 7.91477,7.425 16.97727,16.5 9.0625,9.075 16.25227,16.5 15.97727,16.5 -0.275,0 -7.91477,-7.425 -16.97727,-16.5 z m 7.555,-40.44492 c -8.75686,-8.76971 -16.03589,-16.72394 -16.17564,-17.67608 -0.13974,-0.95214 7.06773,5.58057 16.01661,14.51712 8.94889,8.93655 16.2707,16.89078 16.2707,17.67608 0,0.78529 -0.0428,1.4278 -0.0951,1.4278 -0.0523,0 -7.25975,-7.17521 -16.01661,-15.94492 z m 15.445,13.68282 c 0,-0.14415 -7.0875,-7.23166 -15.75,-15.75 l -15.75,-15.4879 15.4879,15.75 c 14.38838,14.63187 16.0121,16.20244 16.0121,15.4879 z"
       id="path3015"
       style="fill:#ffa400;fill-opacity:1" />
    <path
       d="m 421.99295,509.18131 c -6.03846,-2.05238 -12.30437,-3.41668 -18.53769,-4.63277 -9.12109,-1.43469 -17.98905,-4.02623 -26.68791,-7.22901 -1.50995,-0.67544 -3.06149,-1.25362 -4.52984,-2.02633 -3.4226,-1.80111 -5.93058,-3.68855 -9.04478,-6.03785 -5.16751,-3.89828 -10.05988,-8.12638 -14.95221,-12.40326 -10.73646,-9.37852 -19.85262,-20.64028 -28.43923,-32.20794 -10.26603,-13.82867 -17.69024,-29.58854 -24.85057,-45.3872 -5.28205,-12.80919 -10.69316,-25.71265 -14.09584,-39.26996 -0.66761,-2.65998 -1.18356,-5.36063 -1.77535,-8.04095 -2.71308,-13.27532 -2.76714,-26.93752 -0.59425,-40.30767 0.40593,-2.49777 0.99025,-4.95883 1.48538,-7.43825 2.47852,-9.96769 5.9041,-19.69611 10.85724,-28.58569 3.33944,-5.99342 4.94553,-7.85108 8.96622,-13.39521 6.69725,-8.60886 14.191,-16.53364 22.64705,-23.17823 11.76023,-9.24095 31.28736,-20.08064 40.24058,-25.61686 14.58149,-8.07544 30.13406,-13.73891 45.88967,-18.53912 14.40763,-4.35958 29.16929,-6.44881 44.09458,-7.17314 9.51009,-0.38554 19.09343,0.0523 28.49718,1.6859 5.38875,0.93615 7.15439,1.54031 12.40767,2.95941 12.2382,3.34495 23.8364,8.65059 35.19529,14.45534 7.21202,3.54414 14.1792,7.72607 20.52314,12.83811 3.64289,2.93548 5.40895,4.70254 8.84383,7.91095 6.09839,6.18266 12.06535,12.55597 17.08266,19.78519 3.33517,4.80553 4.187,6.53793 7.10043,11.61333 4.33223,8.31606 7.63865,17.18953 9.99199,26.36203 1.14244,4.45282 2.35017,10.78303 3.25242,15.27621 3.14916,16.72188 3.97173,33.75723 3.56491,50.76514 -0.66581,14.37048 -2.44083,28.76742 -6.21016,42.61367 -0.78825,2.89549 -1.74709,5.73507 -2.62063,8.60261 -5.45465,16.83839 -14.20417,32.00703 -23.67681,46.55698 0,0 -28.98103,13.42883 -28.98103,13.42883 l 0,0 c 9.53415,-14.27883 18.48902,-29.14393 24.13953,-45.70997 0.90488,-2.8 1.90427,-5.56727 2.71461,-8.39999 3.87557,-13.54795 5.41413,-27.72105 6.26787,-41.8053 0.25146,-6.77377 0.46156,-9.73478 0.30845,-16.53812 -0.25258,-11.22428 -1.57489,-22.40216 -3.63344,-33.40586 -0.90651,-4.26949 -2.19885,-10.6413 -3.33413,-14.88614 -2.36867,-8.85657 -5.52647,-17.50864 -9.7704,-25.53945 -2.73593,-4.81767 -3.67488,-6.73596 -6.85244,-11.26315 -4.95459,-7.05899 -10.95757,-13.13419 -17.03614,-19.07013 -8.93025,-8.14753 -17.87016,-15.0477 -28.73992,-20.06786 -11.23034,-5.66014 -22.69798,-10.7927 -34.82135,-13.88274 -4.68774,-1.20619 -7.23908,-1.9667 -12.01625,-2.77607 -9.22586,-1.56308 -18.61562,-1.80439 -27.93214,-1.34206 -14.68361,1.01334 -29.27803,3.25949 -43.44655,7.61592 -15.69361,4.91105 -31.15216,10.80149 -45.51627,19.25363 6.81889,-4.24815 13.54675,-8.66692 20.45665,-12.74445 2.25727,-1.33202 -4.36699,2.93366 -6.48712,4.50104 -8.55663,6.32572 -16.14587,13.97783 -22.9328,22.38136 -3.54352,4.70063 -6.02764,7.71109 -9.0356,12.81039 -5.04694,8.55596 -8.4411,18.01951 -11.10628,27.67628 -0.56268,2.4155 -1.21956,4.80826 -1.68805,7.2465 -2.4873,12.94482 -2.57354,26.29462 -0.0794,39.24112 0.5582,2.61999 1.03849,5.26023 1.67458,7.85995 3.28345,13.41952 8.53624,26.22561 13.63544,38.9391 2.31822,5.23693 4.7244,10.82689 7.26694,15.94538 5.00783,10.08143 10.89517,19.62034 17.58114,28.52758 8.66408,11.21685 17.60764,22.34353 28.30736,31.43475 8.79121,7.40438 17.86867,14.96482 28.54818,18.97019 8.67844,2.95975 17.50729,5.34403 26.53775,6.73054 6.61148,1.26339 13.21742,2.56072 19.79931,3.98794 0,0 -28.45344,20.92536 -28.45344,20.92536 z"
       id="path4107"
       style="fill:#ffa400;fill-opacity:1" />
  </g>
</svg>
