<?xml version="1.0" encoding="UTF-8" ?>
<!DOCTYPE svg PUBLIC "-//W3C//DTD SVG 1.1//EN" "http://www.w3.org/Graphics/SVG/1.1/DTD/svg11.dtd">
<svg width="200pt" height="200pt" viewBox="0 0 200 200" version="1.1" xmlns="http://www.w3.org/2000/svg">
<path fill="#fff" d=" M 101.85 18.68 C 113.65 14.94 125.36 10.93 137.10 7.00 C 137.34 7.22 137.81 7.67 138.05 7.89 C 137.60 17.22 136.39 26.51 135.86 35.84 C 135.06 44.22 135.30 53.05 131.84 60.93 C 129.39 66.86 126.25 72.47 123.14 78.08 C 102.64 116.06 83.02 154.54 62.30 192.40 C 63.56 175.25 67.66 158.51 70.70 141.63 C 77.26 106.00 84.24 70.46 90.53 34.78 C 91.64 30.83 91.54 26.30 93.78 22.75 C 95.99 20.63 99.03 19.72 101.85 18.68 Z" />
</svg>
