<?xml version="1.0" encoding="utf-8"?>
<!-- Generator: Adobe Illustrator 15.1.0, SVG Export Plug-In . SVG Version: 6.00 Build 0)  -->
<!DOCTYPE svg PUBLIC "-//W3C//DTD SVG 1.1//EN" "http://www.w3.org/Graphics/SVG/1.1/DTD/svg11.dtd">
<svg version="1.1" id="Layer_1" xmlns="http://www.w3.org/2000/svg" xmlns:xlink="http://www.w3.org/1999/xlink" x="0px" y="0px"
	 width="389.08px" height="142.02px" viewBox="0 0 389.08 142.02" enable-background="new 0 0 389.08 142.02" xml:space="preserve">
<g id="Layer_2">
	<rect y="0" fill="#1F8DA6" width="389.08" height="142.02"/>
</g>
<g id="Layer_1_1_" onload="init(evt)" xmlns:xml="http://www.w3.org/XML/1998/namespace">
	<link  rel="stylesheet" href="" xmlns="http://www.w3.org/1999/xhtml"></link>
	<script  type="text/ecmascript" xlink:href=""></script>
	<g id="workspace" transform="matrix(1 0 0 1 0 0)">
	</g>
	<path fill="#454545" d="M-0.334,142.02L24.501,12.129L58.649,0.747l-3.104,37.956L-0.334,142.02z"/>
	<path fill="#454545" d="M119.698,38.906L65.893,59.73L76.24,12.129l34.148-11.382L109.35,11.91L85.557,38.798l35.179-15.286
		L119.698,38.906z"/>
	<path fill="#454545" d="M133.04,142.02l22.878-94.708l-25.87,13.452l-0.009-0.004l20.702-48.957l-37.249,7.57l26.909-18.723
		l32.083,0.079l-16.566,34.163l22.765-8.276l-45.52,115.387"/>
	<path fill="#454545" d="M197.208,59.73h-14.385l8.278-41.392l-18.626,4.14l15.522-21.729h20.695L197.31,59.73"/>
	<path fill="#454545" d="M255.438,17.884l-12.418,4.139l0.027-0.228l-7.271,37.479l-0.127,0.52h-14.383l0.021-0.52l8.277-41.391
		l-18.625,4.139l15.521-21.729l16.558,4.14l12.416-4.14l16.559,4.14l12.418-4.14h14.484L288.31,58.403l-0.127,0.519H273.8
		l0.023-0.519l8.277-41.392l-0.508,0.465l-12.418,4.142l0.247-0.286l-7.271,37.479l-0.125,0.52h-14.385l0.021-0.52l8.277-41.391"/>
	<path fill="#454545" d="M363.483,59.397l14.51-0.518l0.164-0.28l10.588-58.11h-14.487l-12.417,4.141l-16.557-4.141l-12.418,4.141
		L316.31,0.489l-15.521,21.73l18.626-4.14l-8.276,41.392l-0.023,0.518l14.511-0.518l7.271-37.479l-0.025,0.228l12.418-4.14
		l0.506-0.467l-8.275,41.394l-0.236,0.579l14.51-0.52l0.213-0.062l7.271-37.479l-0.246,0.285l12.418-4.14l0.506-0.465l-8.277,41.392
		"/>
</g>
</svg>
