<?xml version="1.0" encoding="utf-8"?><svg xmlns="http://www.w3.org/2000/svg" xmlns:xlink="http://www.w3.org/1999/xlink" version="1.1" x="0px" y="0px" width="389.08px" height="142.02px" viewBox="0 0 389.08 142.02" enable-background="new 0 0 389.08 142.02" xml:space="preserve" xmlns:xml="http://www.w3.org/XML/1998/namespace" onload="init(evt)"><defs><style><![CDATA[ ]]></style></defs><link xmlns="http://www.w3.org/1999/xhtml" rel="stylesheet" href=""/><script xlink:href="" type="text/ecmascript"/><g transform="matrix(1 0 0 1 0 0)" type="LAYER" name="workspace" id="workspace"/><g transform="matrix(1 0 0 1 0 0)" type="LAYER" name="Layer 01" id="Layer 01"><path transform="matrix(1 0 0 1 24.835182344195232 12.225199867744166)" width="34.14782608695657" height="11.382608695652152" stroke-linecap="round" stroke-linejoin="bevel" stroke="#000000" fill="#5A1313" d="M0,0 L34.14782608695657,-11.382608695652152 "/><path transform="matrix(1 0 0 1 24.835182344195232 12.225199867744166)" width="24.834782608695605" height="129.34782608695653" stroke-linecap="round" stroke-linejoin="bevel" stroke="#000000" fill="#5A1313" d="M0,0 L-24.834782608695605,129.34782608695653 "/><path transform="matrix(1 0 0 1 55.87866060506292 38.79909952814677)" width="55.878260869565224" height="102.773926426554" stroke-linecap="round" stroke-linejoin="bevel" stroke="#000000" fill="#5A1313" d="M0,0 L-55.878260869565224,102.773926426554 "/><path transform="matrix(0.9999999999999747 -5.717648576819556e-15 5.717648576819556e-15 0.9999999999999747 55.87866060506292 38.79909952814624)" width="3.1043478260869506" height="37.956508356054655" stroke-linecap="round" stroke-linejoin="bevel" stroke="#000000" fill="#5A1313" d="M0,0 L3.1043478260869506,-37.956508356054655 "/><path transform="matrix(1 0 0 1 76.57431277897649 12.225199867747108)" width="34.14782608695657" height="11.382608695652152" stroke-linecap="round" stroke-linejoin="bevel" stroke="#000000" fill="#5A1313" d="M0,0 L34.14782608695657,-11.382608695652152 "/><path transform="matrix(1 0 0 1 110.72213886593266 0.8425911720950126)" width="1.0380270183550238" height="11.16312928658337" stroke-linecap="round" stroke-linejoin="bevel" stroke="#000000" fill="#5A1313" d="M0,0 L-1.0380270183550238,11.16312928658337 "/><path transform="matrix(1 0 0 1 108.6596256394401 26.034214299197842)" width="23.792744001388314" height="26.888146583447252" stroke-linecap="round" stroke-linejoin="bevel" stroke="#000000" fill="#5A1313" d="M1.0244862081375459,-14.028493840519474 L-22.76825779325077,12.859652742927778 "/><path transform="matrix(1 0 0 1 76.57431277897649 12.225199867747108)" width="10.347826086956502" height="47.59999999999707" stroke-linecap="round" stroke-linejoin="bevel" stroke="#000000" fill="#5A1313" d="M0,0 L-10.347826086956502,47.59999999999707 "/><path transform="matrix(1 0 0 1 66.22648669202056 59.82519986774422)" width="53.805832028246186" height="20.823530053504953" stroke-linecap="round" stroke-linejoin="bevel" stroke="#000000" fill="#5A1313" d="M0,0 L53.805832028246186,-20.823530053504953 "/><path transform="matrix(1 0 0 1 120.03231872026657 39.001669814239264)" width="1.0376462326235014" height="15.393861250842804" stroke-linecap="round" stroke-linejoin="bevel" stroke="#000000" fill="#5A1313" d="M0,0 L1.0376462326235014,-15.393861250842804 "/><path transform="matrix(1 0 0 1 86.91633801005759 38.89710346706903)" width="35.178597106699954" height="15.286058478729217" stroke-linecap="round" stroke-linejoin="bevel" stroke="#000000" fill="#5A1313" d="M-1.0249701638673514,-0.003236424943338534 L34.1536269428326,-15.289294903672555 "/><path transform="matrix(1 0 0 1 113.8264866920195 19.46867812861376)" width="26.908953395371896" height="18.720404469455243" stroke-linecap="round" stroke-linejoin="bevel" stroke="#000000" fill="#5A1313" d="M0,0 L26.908953395371896,-18.720404469455243 "/><path transform="matrix(1 0 0 1 140.7354400873914 0.7482736591585173)" width="32.083168363497066" height="0.07910112766100497" stroke-linecap="round" stroke-linejoin="bevel" stroke="#000000" fill="#5A1313" d="M0,0 L32.083168363497066,0.07910112766100497 "/><path transform="matrix(1 0 0 1 113.8264866920195 19.46867812861376)" width="37.248652553596685" height="7.570024173745338" stroke-linecap="round" stroke-linejoin="bevel" stroke="#000000" fill="#5A1313" d="M0,0 L37.248652553596685,-7.570024173745338 "/><path transform="matrix(0.9999999999999858 -3.941291737419306e-15 3.941291737419306e-15 0.9999999999999858 162.4631915345014 1.0977218088586227)" width="16.566034802346422" height="34.16304247222925" stroke-linecap="round" stroke-linejoin="bevel" stroke="#000000" fill="#5A1313" d="M10.355416916387213,-0.27034702203906136 L-6.210617885959209,33.89269545019019 "/><path transform="matrix(1 0 0 1 151.07513924561584 11.898653954868422)" width="19.65734820577063" height="47.92654591287581" stroke-linecap="round" stroke-linejoin="bevel" stroke="#000000" fill="#5A1313" d="M0,0 L-19.65734820577063,47.92654591287581 "/><path transform="matrix(1 0 0 1 130.38300843115059 59.82519986774521)" width="25.869565217391596" height="13.452173913044362" stroke-linecap="round" stroke-linejoin="bevel" stroke="#000000" fill="#5A1313" d="M0,1.0347826086956502 L25.869565217391596,-12.417391304348712 "/><path transform="matrix(1 0 0 1 156.25257364854207 34.99041725904851)" width="22.765217391304418" height="8.278260869565202" stroke-linecap="round" stroke-linejoin="bevel" stroke="#000000" fill="#5A1313" d="M0,0 L22.765217391304418,-8.278260869565202 "/><path transform="matrix(1 0 0 1 179.01779103984603 30.851286824265912)" width="45.51995598842859" height="115.38653249245095" stroke-linecap="round" stroke-linejoin="bevel" stroke="#000000" fill="#5A1313" d="M0,-4.139130434782601 L-45.51995598842859,111.24740205766835 "/><path transform="matrix(1 0 0 1 149.00909538767297 49.477373780788525)" width="22.76742162545372" height="94.70764863058972" stroke-linecap="round" stroke-linejoin="bevel" stroke="#000000" fill="#5A1313" d="M7.243478260869665,-2.069565217392096 L-15.523943364584056,92.63808341319762 "/><path transform="matrix(1 0 0 1 172.80909538767247 21.538243346005004)" width="15.521739130434753" height="21.730434782608377" stroke-linecap="round" stroke-linejoin="bevel" stroke="#000000" fill="#5A1313" d="M0,1.0347826086956573 L15.521739130434753,-20.69565217391272 "/><path transform="matrix(1 0 0 1 172.80909538767247 21.538243346005004)" width="18.626086956521704" height="4.139130434782629" stroke-linecap="round" stroke-linejoin="bevel" stroke="#000000" fill="#5A1313" d="M0,1.0347826086956502 L18.626086956521704,-3.104347826086979 "/><path transform="matrix(1 0 0 1 191.43518234419383 18.43389551991808)" width="8.278260869565202" height="41.39130434782609" stroke-linecap="round" stroke-linejoin="bevel" stroke="#000000" fill="#5A1313" d="M0,0 L-8.278260869565202,41.39130434782609 "/><path transform="matrix(1 0 0 1 183.1569214746284 59.82519986774422)" width="14.38449285115189" stroke-linecap="round" stroke-linejoin="bevel" stroke="#000000" fill="#5A1313" d="M0,0 L14.38449285115189,0 "/><path transform="matrix(1 0 0 1 205.92213886593225 18.43389551991808)" width="11.38260869565238" height="58.98260869565186" stroke-linecap="round" stroke-linejoin="bevel" stroke="#000000" fill="#5A1313" d="M3.104347826087178,-17.59130434782577 L-8.278260869565202,41.39130434782609 "/><path transform="matrix(1 0 0 1 190.40039973549761 0.8425911720923835)" width="20.69565217391272" height="7.460698725481052e-14" stroke-linecap="round" stroke-linejoin="bevel" stroke="#000000" fill="#5A1313" d="M-2.0695652173904477,-1.0302869668521453e-13 L18.626086956522272,-2.842170943040401e-14 "/><path transform="matrix(1 0 0 1 211.27713886593057 21.083904281697393)" width="15.521739130434753" height="21.730434782608363" stroke-linecap="round" stroke-linejoin="bevel" stroke="#000000" fill="#5A1313" d="M0,1.034782608695643 L15.521739130434753,-20.69565217391272 "/><path transform="matrix(1 0 0 1 211.27713886593057 21.083904281697393)" width="18.626086956521704" height="4.139130434782629" stroke-linecap="round" stroke-linejoin="bevel" stroke="#000000" fill="#5A1313" d="M0,1.0347826086956502 L18.626086956521704,-3.104347826086979 "/><path transform="matrix(1 0 0 1 229.90322582245128 17.979556455610066)" width="8.278260869565202" height="41.39130434782609" stroke-linecap="round" stroke-linejoin="bevel" stroke="#000000" fill="#5A1313" d="M0,0 L-8.278260869565202,41.39130434782609 "/><path transform="matrix(1 0 0 1 244.39018234419274 17.979556455610066)" width="7.271176636210271" height="37.47950752740363" stroke-linecap="round" stroke-linejoin="bevel" stroke="#000000" fill="#5A1313" d="M-1.0070842333549308,3.9117968204224667 L-8.278260869565202,41.39130434782609 "/><path transform="matrix(1 0 0 1 228.8684432137554 0.3882521077837815)" width="16.556521739130517" height="4.139130434783453" stroke-linecap="round" stroke-linejoin="bevel" stroke="#000000" fill="#5A1313" d="M-2.0695652173913004,0 L14.486956521739216,4.139130434783453 "/><path transform="matrix(1 0 0 1 221.60183143853703 59.88825210778661)" width="14.38449285115189" stroke-linecap="round" stroke-linejoin="bevel" stroke="#000000" fill="#5A1313" d="M0,0 L14.38449285115189,0 "/><path transform="matrix(1 0 0 1 243.35539973549697 21.083904281697393)" width="12.417391304348826" height="4.139130434783169" stroke-linecap="round" stroke-linejoin="bevel" stroke="#000000" fill="#5A1313" d="M0,1.0347826086956502 L12.417391304348826,-3.104347826087519 "/><path transform="matrix(1 0 0 1 256.27969985035173 17.514577620461722)" width="8.278260869565202" height="41.39130434782609" stroke-linecap="round" stroke-linejoin="bevel" stroke="#000000" fill="#5A1313" d="M0,0 L-8.278260869565202,41.39130434782609 "/><path transform="matrix(1 0 0 1 270.76665637209004 17.514577620461722)" width="7.271176636210271" height="37.47950752740363" stroke-linecap="round" stroke-linejoin="bevel" stroke="#000000" fill="#5A1313" d="M-1.0070842333549308,3.9117968204224667 L-8.278260869565202,41.39130434782609 "/><path transform="matrix(1 0 0 1 247.97830546643473 59.42327327263769)" width="14.38449285115189" stroke-linecap="round" stroke-linejoin="bevel" stroke="#000000" fill="#5A1313" d="M0,0 L14.38449285115189,0 "/><path transform="matrix(1 0 0 1 269.5133085169669 20.676969069984374)" width="12.417391304348826" height="4.139130434783169" stroke-linecap="round" stroke-linejoin="bevel" stroke="#000000" fill="#5A1313" d="M0,1.0347826086956502 L12.417391304348826,-3.104347826087519 "/><path transform="matrix(1 0 0 1 282.4376086318246 17.107642408749378)" width="8.278260869565202" height="41.39130434782609" stroke-linecap="round" stroke-linejoin="bevel" stroke="#000000" fill="#5A1313" d="M0,0 L-8.278260869565202,41.39130434782609 "/><path transform="matrix(1 0 0 1 296.9245651535629 17.107642408749378)" width="10.587356321063112" height="58.1106946487935" stroke-linecap="round" stroke-linejoin="bevel" stroke="#000000" fill="#5A1313" d="M2.3090954514979103,-16.719390300967405 L-8.278260869565202,41.39130434782609 "/><path transform="matrix(1 0 0 1 274.13621424790733 59.01633806092539)" width="14.38449285115189" stroke-linecap="round" stroke-linejoin="bevel" stroke="#000000" fill="#5A1313" d="M0,0 L14.38449285115189,0 "/><path transform="matrix(1 0 0 1 243.35539973549697 3.4925999338717233)" width="12.417391304351213" height="4.139130434783027" stroke-linecap="round" stroke-linejoin="bevel" stroke="#000000" fill="#5A1313" d="M-2.3874235921539366e-12,1.034782608695508 L12.417391304348826,-3.104347826087519 "/><path transform="matrix(1 0 0 1 257.8423562572355 0.38825210778488994)" width="16.556521739130517" height="4.139130434783453" stroke-linecap="round" stroke-linejoin="bevel" stroke="#000000" fill="#5A1313" d="M-2.0695652173913004,0 L14.486956521739216,4.139130434783453 "/><path transform="matrix(1 0 0 1 272.32931277897336 3.4925999338717233)" width="12.417391304348826" height="4.139130434783169" stroke-linecap="round" stroke-linejoin="bevel" stroke="#000000" fill="#5A1313" d="M0,1.0347826086956502 L12.417391304348826,-3.104347826087519 "/><path transform="matrix(1 0 0 1 284.7467040833239 0.3882521077840657)" width="14.48695652173842" height="2.3305801732931286e-12" stroke-linecap="round" stroke-linejoin="bevel" stroke="#000000" fill="#5A1313" d="M0,0 L14.48695652173842,-2.3305801732931286e-12 "/><path transform="matrix(1 0 0 1 301.12213886592957 21.279547693833962)" width="15.52173913043481" height="21.73043478260837" stroke-linecap="round" stroke-linejoin="bevel" stroke="#000000" fill="#5A1313" d="M-5.684341886080802e-14,1.0347826086956502 L15.521739130434753,-20.69565217391272 "/><path transform="matrix(1 0 0 1 301.12213886592957 21.279547693833962)" width="18.626086956521704" height="4.139130434782629" stroke-linecap="round" stroke-linejoin="bevel" stroke="#000000" fill="#5A1313" d="M0,1.0347826086956502 L18.626086956521704,-3.104347826086979 "/><path transform="matrix(1 0 0 1 319.74822582245343 18.175199867746826)" width="8.278260869565202" height="41.39130434782609" stroke-linecap="round" stroke-linejoin="bevel" stroke="#000000" fill="#5A1313" d="M0,0 L-8.278260869565202,41.39130434782609 "/><path transform="matrix(1 0 0 1 334.23518234419174 18.175199867746826)" width="7.271176636210271" height="37.47950752740363" stroke-linecap="round" stroke-linejoin="bevel" stroke="#000000" fill="#5A1313" d="M-1.0070842333549308,3.9117968204224667 L-8.278260869565202,41.39130434782609 "/><path transform="matrix(1 0 0 1 318.7134432137579 0.5838955199194231)" width="16.556521739130517" height="4.139130434783453" stroke-linecap="round" stroke-linejoin="bevel" stroke="#000000" fill="#5A1313" d="M-2.0695652173913004,0 L14.486956521739216,4.139130434783453 "/><path transform="matrix(1 0 0 1 312.0385880925283 60.08389551992441)" width="14.510090036090617" height="0.5173913043515057" stroke-linecap="round" stroke-linejoin="bevel" stroke="#000000" fill="#5A1313" d="M-0.59175665399232,0 L13.918333382098297,-0.5173913043515057 "/><path transform="matrix(1 0 0 1 333.2003997354962 21.279547693833962)" width="12.417391304348826" height="4.139130434783169" stroke-linecap="round" stroke-linejoin="bevel" stroke="#000000" fill="#5A1313" d="M0,1.0347826086956502 L12.417391304348826,-3.104347826087519 "/><path transform="matrix(1 0 0 1 346.12469985035085 17.710221032598326)" width="8.278260869565202" height="41.39130434782609" stroke-linecap="round" stroke-linejoin="bevel" stroke="#000000" fill="#5A1313" d="M0,0 L-8.278260869565202,41.39130434782609 "/><path transform="matrix(1 0 0 1 360.6116563720922 17.710221032598326)" width="7.271176636210271" height="37.47950752740363" stroke-linecap="round" stroke-linejoin="bevel" stroke="#000000" fill="#5A1313" d="M-1.0070842333549308,3.9117968204224667 L-8.278260869565202,41.39130434782609 "/><path transform="matrix(1 0 0 1 359.35830851696943 20.872612482121284)" width="12.417391304348826" height="4.139130434783169" stroke-linecap="round" stroke-linejoin="bevel" stroke="#000000" fill="#5A1313" d="M0,1.0347826086956502 L12.417391304348826,-3.104347826087519 "/><path transform="matrix(1 0 0 1 372.2826086318241 17.303285820886003)" width="8.278260869565202" height="41.39130434782609" stroke-linecap="round" stroke-linejoin="bevel" stroke="#000000" fill="#5A1313" d="M0,0 L-8.278260869565202,41.39130434782609 "/><path transform="matrix(1 0 0 1 386.76956515356216 17.303285820886003)" width="10.587356321063112" height="58.1106946487935" stroke-linecap="round" stroke-linejoin="bevel" stroke="#000000" fill="#5A1313" d="M2.3090954514979103,-16.719390300967405 L-8.278260869565202,41.39130434782609 "/><path transform="matrix(1 0 0 1 333.2003997354962 3.6882433460079938)" width="12.417391304348826" height="4.139130434783169" stroke-linecap="round" stroke-linejoin="bevel" stroke="#000000" fill="#5A1313" d="M0,1.0347826086956502 L12.417391304348826,-3.104347826087519 "/><path transform="matrix(1 0 0 1 347.6873562572345 0.5838955199206879)" width="16.556521739130517" height="4.139130434783453" stroke-linecap="round" stroke-linejoin="bevel" stroke="#000000" fill="#5A1313" d="M-2.0695652173913004,0 L14.486956521739216,4.139130434783453 "/><path transform="matrix(1 0 0 1 362.1743127789728 3.6882433460079938)" width="12.417391304348826" height="4.139130434783169" stroke-linecap="round" stroke-linejoin="bevel" stroke="#000000" fill="#5A1313" d="M0,1.0347826086956502 L12.417391304348826,-3.104347826087519 "/><path transform="matrix(1 0 0 1 374.59170408332335 0.5838955199194231)" width="14.48695652173842" height="2.3305801732931286e-12" stroke-linecap="round" stroke-linejoin="bevel" stroke="#000000" fill="#5A1313" d="M0,0 L14.48695652173842,-2.3305801732931286e-12 "/><path transform="matrix(1 0 0 1 338.2022763076832 59.681038132038296)" width="14.510090036090617" height="0.5173913043515057" stroke-linecap="round" stroke-linejoin="bevel" stroke="#000000" fill="#5A1313" d="M-0.59175665399232,0 L13.918333382098297,-0.5173913043515057 "/><path transform="matrix(1 0 0 1 364.40905197085556 59.492138865932006)" width="14.510090036090617" height="0.5173913043515057" stroke-linecap="round" stroke-linejoin="bevel" stroke="#000000" fill="#5A1313" d="M-0.59175665399232,0 L13.918333382098297,-0.5173913043515057 "/></g></svg>